<?xml version="1.0" encoding="UTF-8" standalone="no"?><!DOCTYPE svg PUBLIC "-//W3C//DTD SVG 1.1//EN" "http://www.w3.org/Graphics/SVG/1.1/DTD/svg11.dtd"><svg width="100%" height="100%" viewBox="0 0 512 512" version="1.1" xmlns="http://www.w3.org/2000/svg" xmlns:xlink="http://www.w3.org/1999/xlink" xml:space="preserve" style="fill-rule:evenodd;clip-rule:evenodd;stroke-linecap:round;stroke-linejoin:round;stroke-miterlimit:1.5;"><g><path d="M142.341,20.231c-68.74,39.671 -115.079,114.191 -115.079,199.504c0,126.878 102.494,229.888 228.738,229.888c126.244,0 228.738,-103.01 228.738,-229.888c0,-85.313 -46.339,-159.833 -115.079,-199.504c80.908,41.312 136.341,125.323 136.341,222.148c0,137.642 -112.021,249.39 -250,249.39c-137.979,0 -250,-111.748 -250,-249.39c0,-96.825 55.433,-180.836 136.341,-222.148Z" style="fill:#ccc;"/><path d="M255.597,476.011c-3.997,-0.061 -37.077,-0.242 -72.995,9.768c0.962,-12.85 4.489,-23.063 -3.059,-29.376c-24.318,-10.342 -82.164,-18.451 -109.909,-52.351c-8.79,-11.855 -14.496,-40.082 -15.33,-61.046c-1.048,-26.344 -1.119,-74.009 -1.119,-74.009l21.076,-37.245l-21.475,3.769l-2.665,-202.057l76.322,113.9l40.282,-21.619l89.275,-22.05l89.275,22.05l40.282,21.619l76.322,-113.9l-2.665,202.057l-21.475,-3.769l21.076,37.245c0,0 -0.071,47.665 -1.119,74.009c-0.834,20.964 -6.54,49.191 -15.33,61.046c-27.745,33.9 -85.591,42.009 -109.909,52.351c-7.548,6.313 -4.021,16.526 -3.059,29.376c-38.313,-10.678 -73.398,-9.76 -73.398,-9.76l-0.403,-0.008Z" style="stroke:#000;stroke-width:1px;"/><g><g><ellipse cx="256" cy="198.567" rx="111.065" ry="116.758" style="fill:#969696;"/><ellipse cx="256" cy="192.715" rx="111.065" ry="110.906" style="fill:#d5d5d5;"/></g><g><path d="M298.081,178.14c5,7.791 7.627,15.965 7.627,25.916c0,27.57 -22.274,49.953 -49.708,49.953c-27.434,0 -49.708,-22.383 -49.708,-49.953c0,-9.951 2.723,-18.052 7.722,-25.843" style="fill:none;stroke:#515151;stroke-width:22px;"/><g><path d="M256,113.658l0,92.645" style="fill:none;stroke:#a80000;stroke-width:22px;"/><path d="M256,113.658l28.218,36.463" style="fill:none;stroke:#a80000;stroke-width:22px;"/><path d="M256,113.658l-28.218,36.463" style="fill:none;stroke:#a80000;stroke-width:22px;"/></g></g></g><g><path d="M199.305,406.232l-95.625,-77.112c0,0 -5.66,62.512 41.255,87.094c33.474,13.874 54.37,-9.982 54.37,-9.982Z" style="fill:#a80000;"/><path d="M312.167,406.232l95.625,-77.112c0,0 5.66,62.512 -41.255,87.094c-33.474,13.874 -54.37,-9.982 -54.37,-9.982Z" style="fill:#a80000;"/></g></g></svg>